<svg width="86" height="83" viewBox="0 0 86 83" fill="none" xmlns="http://www.w3.org/2000/svg">
<g filter="url(#filter0_f_30_2286)">
<ellipse cx="39.1818" cy="55.7865" rx="17.1818" ry="5.21341" fill="#4DB4FF"/>
</g>
<g filter="url(#filter1_ddi_30_2286)">
<ellipse cx="55.8182" cy="30.2683" rx="14.1818" ry="14.2683" fill="url(#paint0_linear_30_2286)"/>
</g>
<g filter="url(#filter2_bi_30_2286)">
<path fill-rule="evenodd" clip-rule="evenodd" d="M52 35.2073C52 35.6399 51.9834 36.0685 51.9508 36.4927C53.7426 35.0041 56.0402 34.1097 58.5455 34.1097C64.2691 34.1097 68.9091 38.778 68.9091 44.5366C68.9091 50.1111 64.561 54.6638 59.0909 54.9492V54.9634H58.5674C58.5601 54.9634 58.5528 54.9634 58.5455 54.9634C58.5381 54.9634 58.5308 54.9634 58.5235 54.9634H20.3856C20.3783 54.9634 20.371 54.9634 20.3636 54.9634C20.3563 54.9634 20.349 54.9634 20.3417 54.9634H19.2727V54.9063C14.0618 54.3578 10 49.9244 10 44.5366C10 39.1375 14.0786 34.6969 19.3051 34.1635C19.8403 25.5573 26.9475 18.7439 35.6363 18.7439C44.6737 18.7439 52 26.1148 52 35.2073Z" fill="url(#paint1_linear_30_2286)"/>
</g>
<defs>
<filter id="filter0_f_30_2286" x="0" y="28.5731" width="78.3636" height="54.4268" filterUnits="userSpaceOnUse" color-interpolation-filters="sRGB">
<feFlood flood-opacity="0" result="BackgroundImageFix"/>
<feBlend mode="normal" in="SourceGraphic" in2="BackgroundImageFix" result="shape"/>
<feGaussianBlur stdDeviation="11" result="effect1_foregroundBlur_30_2286"/>
</filter>
<filter id="filter1_ddi_30_2286" x="25.6364" y="0" width="60.3636" height="60.5366" filterUnits="userSpaceOnUse" color-interpolation-filters="sRGB">
<feFlood flood-opacity="0" result="BackgroundImageFix"/>
<feColorMatrix in="SourceAlpha" type="matrix" values="0 0 0 0 0 0 0 0 0 0 0 0 0 0 0 0 0 0 127 0" result="hardAlpha"/>
<feOffset/>
<feGaussianBlur stdDeviation="8"/>
<feComposite in2="hardAlpha" operator="out"/>
<feColorMatrix type="matrix" values="0 0 0 0 0.992157 0 0 0 0 0.773882 0 0 0 0 0 0 0 0 1 0"/>
<feBlend mode="normal" in2="BackgroundImageFix" result="effect1_dropShadow_30_2286"/>
<feColorMatrix in="SourceAlpha" type="matrix" values="0 0 0 0 0 0 0 0 0 0 0 0 0 0 0 0 0 0 127 0" result="hardAlpha"/>
<feOffset/>
<feGaussianBlur stdDeviation="5.5"/>
<feComposite in2="hardAlpha" operator="out"/>
<feColorMatrix type="matrix" values="0 0 0 0 0.992157 0 0 0 0 0.772549 0 0 0 0 0 0 0 0 0.45 0"/>
<feBlend mode="normal" in2="effect1_dropShadow_30_2286" result="effect2_dropShadow_30_2286"/>
<feBlend mode="normal" in="SourceGraphic" in2="effect2_dropShadow_30_2286" result="shape"/>
<feColorMatrix in="SourceAlpha" type="matrix" values="0 0 0 0 0 0 0 0 0 0 0 0 0 0 0 0 0 0 127 0" result="hardAlpha"/>
<feOffset dx="-1" dy="3"/>
<feGaussianBlur stdDeviation="2.5"/>
<feComposite in2="hardAlpha" operator="arithmetic" k2="-1" k3="1"/>
<feColorMatrix type="matrix" values="0 0 0 0 1 0 0 0 0 0.9 0 0 0 0 0 0 0 0 0.35 0"/>
<feBlend mode="normal" in2="shape" result="effect3_innerShadow_30_2286"/>
</filter>
<filter id="filter2_bi_30_2286" x="3" y="11.7439" width="72.9091" height="50.2195" filterUnits="userSpaceOnUse" color-interpolation-filters="sRGB">
<feFlood flood-opacity="0" result="BackgroundImageFix"/>
<feGaussianBlur in="BackgroundImageFix" stdDeviation="3.5"/>
<feComposite in2="SourceAlpha" operator="in" result="effect1_backgroundBlur_30_2286"/>
<feBlend mode="normal" in="SourceGraphic" in2="effect1_backgroundBlur_30_2286" result="shape"/>
<feColorMatrix in="SourceAlpha" type="matrix" values="0 0 0 0 0 0 0 0 0 0 0 0 0 0 0 0 0 0 127 0" result="hardAlpha"/>
<feOffset dy="2"/>
<feGaussianBlur stdDeviation="4"/>
<feComposite in2="hardAlpha" operator="arithmetic" k2="-1" k3="1"/>
<feColorMatrix type="matrix" values="0 0 0 0 0 0 0 0 0 0.82 0 0 0 0 1 0 0 0 0.25 0"/>
<feBlend mode="normal" in2="shape" result="effect2_innerShadow_30_2286"/>
</filter>
<linearGradient id="paint0_linear_30_2286" x1="55.8182" y1="16" x2="55.8182" y2="44.5366" gradientUnits="userSpaceOnUse">
<stop stop-color="#FDC500"/>
<stop offset="1" stop-color="#FD8900"/>
</linearGradient>
<linearGradient id="paint1_linear_30_2286" x1="40.5455" y1="67.8597" x2="62.8602" y2="18.8458" gradientUnits="userSpaceOnUse">
<stop stop-color="#0082DF"/>
<stop offset="0.299998" stop-color="#48B2FF" stop-opacity="0.75"/>
<stop offset="1" stop-color="#3BADFF" stop-opacity="0"/>
</linearGradient>
</defs>
</svg>
