<svg width="61" height="60" viewBox="0 0 61 60" fill="none" xmlns="http://www.w3.org/2000/svg">
<path d="M34.3285 34.6302C32.6454 34.7273 30.9602 34.481 29.3761 33.9064C27.7921 33.3318 26.3426 32.4411 25.1166 31.2889C23.8905 30.1366 22.9137 28.7471 22.2461 27.2056C21.5785 25.6641 21.2341 24.003 21.2341 22.3242C21.2341 20.6455 21.5785 18.9844 22.2461 17.4429C22.9137 15.9013 23.8905 14.5118 25.1166 13.3596C26.3426 12.2073 27.7921 11.3166 29.3761 10.742C30.9602 10.1675 32.6454 9.92117 34.3285 10.0182C35.3914 10.0103 36.4503 10.149 37.4749 10.4305C34.4056 8.2305 30.7125 7.06098 26.9309 7.09146C23.1493 7.12194 19.4756 8.35083 16.4424 10.6C13.4093 12.8492 11.1742 16.0017 10.0612 19.6008C8.94817 23.1998 9.01502 27.0583 10.2521 30.6169C11.4891 34.1756 13.8321 37.2495 16.9414 39.3931C20.0507 41.5368 23.7647 42.6387 27.5451 42.5392C31.3255 42.4398 34.9759 41.1441 37.9672 38.84C40.9585 36.5359 43.1352 33.3431 44.1818 29.7243C43.0379 31.2511 41.5509 32.4901 39.8399 33.342C38.1289 34.1939 36.2414 34.6351 34.3285 34.6302Z" fill="url(#paint0_linear_30_2328)"/>
<path d="M40.9091 23.4545C40.9091 22.0079 40.4228 20.6205 39.5573 19.5976C38.6917 18.5746 37.5178 18 36.2937 18C37.5178 18 38.6917 17.4253 39.5573 16.4024C40.4228 15.3794 40.9091 13.992 40.9091 12.5454C40.9091 13.2617 41.0285 13.971 41.2604 14.6328C41.4924 15.2945 41.8323 15.8959 42.2609 16.4024C42.6895 16.9089 43.1983 17.3106 43.7582 17.5848C44.3182 17.8589 44.9184 18 45.5245 18C44.9184 18 44.3182 18.141 43.7582 18.4152C43.1983 18.6893 42.6895 19.0911 42.2609 19.5976C41.8323 20.1041 41.4924 20.7054 41.2604 21.3671C41.0285 22.0289 40.9091 22.7382 40.9091 23.4545Z" fill="url(#paint1_linear_30_2328)"/>
<path d="M4.61539 42.5454C4.61539 41.0988 4.12912 39.7114 3.26357 38.6885C2.39802 37.6656 1.22408 37.0909 0 37.0909C1.22408 37.0909 2.39802 36.5162 3.26357 35.4933C4.12912 34.4704 4.61539 33.083 4.61539 31.6364C4.61539 32.3527 4.73477 33.0619 4.96671 33.7237C5.19866 34.3855 5.53862 34.9868 5.9672 35.4933C6.39578 35.9998 6.90458 36.4016 7.46454 36.6757C8.02451 36.9498 8.62467 37.0909 9.23077 37.0909C8.62467 37.0909 8.02451 37.232 7.46454 37.5061C6.90458 37.7802 6.39578 38.182 5.9672 38.6885C5.53862 39.195 5.19866 39.7963 4.96671 40.4581C4.73477 41.1199 4.61539 41.8291 4.61539 42.5454Z" fill="url(#paint2_linear_30_2328)"/>
<path fill-rule="evenodd" clip-rule="evenodd" d="M47.7548 25.4251C47.7548 24.0444 48.8741 22.9251 50.2548 22.9251H52.2906C55.9201 22.9251 58.8623 25.8674 58.8623 29.4968C58.8623 32.7077 56.5596 35.3807 53.5156 35.9546H58.3982C59.7789 35.9546 60.8982 37.0738 60.8982 38.4546C60.8982 39.8353 59.7789 40.9546 58.3982 40.9546H55.3478C58.3919 41.5284 60.6946 44.2015 60.6946 47.4123C60.6946 51.0418 57.7523 53.984 54.1229 53.984H52.087C50.7063 53.984 49.587 52.8647 49.587 51.484C49.587 50.1033 50.7063 48.984 52.087 48.984H54.1229C54.9909 48.984 55.6946 48.2803 55.6946 47.4123C55.6946 46.5443 54.9909 45.8406 54.1229 45.8406H33.1536C31.9559 45.8406 30.9549 44.9983 30.7106 43.8738C30.4663 44.9983 29.4653 45.8406 28.2676 45.8406H23.7887C22.408 45.8406 21.2887 44.7213 21.2887 43.3406C21.2887 42.1429 22.131 41.1419 23.2556 40.8976C22.131 40.6533 21.2887 39.6523 21.2887 38.4546C21.2887 37.0738 22.408 35.9546 23.7887 35.9546L38.5127 35.9546C37.4977 35.6365 36.7612 34.6885 36.7612 33.5685C36.7612 32.1878 37.8805 31.0685 39.2612 31.0685H52.2906C53.1586 31.0685 53.8623 30.3648 53.8623 29.4968C53.8623 28.6288 53.1586 27.9251 52.2906 27.9251H50.2548C48.8741 27.9251 47.7548 26.8058 47.7548 25.4251ZM46.9315 36.0685C47.9466 36.3866 48.6831 37.3346 48.6831 38.4546C48.6831 39.5746 47.9466 40.5225 46.9315 40.8406H50.7279C49.7128 40.5225 48.9763 39.5746 48.9763 38.4546C48.9763 37.3346 49.7128 36.3866 50.7278 36.0685H46.9315ZM32.4052 40.9546L29.0159 40.9546C29.8652 41.2207 30.5195 41.9277 30.7106 42.8074C30.9017 41.9277 31.556 41.2207 32.4052 40.9546Z" fill="url(#paint3_linear_30_2328)"/>
<defs>
<linearGradient id="paint0_linear_30_2328" x1="26.7273" y1="7.09088" x2="26.7273" y2="42.5454" gradientUnits="userSpaceOnUse">
<stop stop-color="#FDC500"/>
<stop offset="1" stop-color="#FD8900"/>
</linearGradient>
<linearGradient id="paint1_linear_30_2328" x1="40.9091" y1="12.5454" x2="40.9091" y2="23.4545" gradientUnits="userSpaceOnUse">
<stop stop-color="#FDC500"/>
<stop offset="1" stop-color="#FD8900"/>
</linearGradient>
<linearGradient id="paint2_linear_30_2328" x1="4.61538" y1="31.6364" x2="4.61538" y2="42.5454" gradientUnits="userSpaceOnUse">
<stop stop-color="#FDC500"/>
<stop offset="1" stop-color="#FD8900"/>
</linearGradient>
<linearGradient id="paint3_linear_30_2328" x1="41.0934" y1="22.9251" x2="41.0934" y2="53.984" gradientUnits="userSpaceOnUse">
<stop stop-color="#ACE1FF"/>
<stop offset="1" stop-color="#26A4FF"/>
</linearGradient>
</defs>
</svg>
