<svg width="40" height="40" viewBox="0 0 40 40" fill="none" xmlns="http://www.w3.org/2000/svg">
<path d="M26.522 25.9959C25.4 26.0606 24.2765 25.8964 23.2205 25.5134C22.1644 25.1303 21.1981 24.5365 20.3808 23.7683C19.5634 23.0002 18.9122 22.0739 18.4671 21.0462C18.0221 20.0185 17.7925 18.9111 17.7925 17.7919C17.7925 16.6727 18.0221 15.5654 18.4671 14.5377C18.9122 13.51 19.5634 12.5837 20.3808 11.8155C21.1981 11.0473 22.1644 10.4535 23.2205 10.0705C24.2765 9.68741 25.4 9.52321 26.522 9.58791C27.2306 9.58263 27.9365 9.67512 28.6197 9.86275C26.5734 8.3961 24.1114 7.61642 21.5903 7.63674C19.0692 7.65706 16.6201 8.47632 14.598 9.97576C12.5759 11.4752 11.0858 13.5769 10.3438 15.9763C9.60182 18.3756 9.64639 20.9479 10.4711 23.3204C11.2958 25.6928 12.8578 27.7421 14.9306 29.1712C17.0035 30.6003 19.4795 31.3349 21.9998 31.2686C24.5201 31.2023 26.9537 30.3385 28.9479 28.8024C30.942 27.2664 32.3931 25.1378 33.0909 22.7253C32.3283 23.7432 31.337 24.5692 30.1963 25.1371C29.0557 25.705 27.7973 25.9991 26.522 25.9959Z" fill="#222222"/>
<path d="M34.9091 20.3636C34.9091 19.1099 34.4876 17.9075 33.7375 17.0209C32.9873 16.1344 31.9699 15.6364 30.9091 15.6364C31.9699 15.6364 32.9873 15.1383 33.7375 14.2518C34.4876 13.3652 34.9091 12.1628 34.9091 10.9091C34.9091 11.5299 35.0125 12.1446 35.2135 12.7181C35.4146 13.2917 35.7092 13.8128 36.0806 14.2518C36.4521 14.6907 36.893 15.0389 37.3783 15.2765C37.8636 15.5141 38.3838 15.6364 38.9091 15.6364C38.3838 15.6364 37.8636 15.7586 37.3783 15.9962C36.893 16.2338 36.4521 16.582 36.0806 17.0209C35.7092 17.4599 35.4146 17.981 35.2135 18.5546C35.0125 19.1281 34.9091 19.7428 34.9091 20.3636Z" fill="#222222"/>
<path d="M5.09089 32.3636C5.09089 31.1099 4.66945 29.9075 3.91931 29.0209C3.16916 28.1344 2.15175 27.6364 1.09088 27.6364C2.15175 27.6364 3.16916 27.1383 3.91931 26.2518C4.66945 25.3652 5.09089 24.1628 5.09089 22.9091C5.09089 23.5299 5.19435 24.1446 5.39537 24.7181C5.59639 25.2917 5.89102 25.8128 6.26245 26.2518C6.63389 26.6907 7.07485 27.0389 7.56015 27.2765C8.04545 27.5141 8.56559 27.6364 9.09088 27.6364C8.56559 27.6364 8.04545 27.7586 7.56015 27.9962C7.07485 28.2338 6.63389 28.582 6.26245 29.0209C5.89102 29.4599 5.59639 29.981 5.39537 30.5546C5.19435 31.1281 5.09089 31.7428 5.09089 32.3636Z" fill="#222222"/>
</svg>
