<svg width="22" height="23" viewBox="0 0 22 23" fill="none" xmlns="http://www.w3.org/2000/svg">
<path d="M10.9937 1L18.0687 7.15259C19.4679 8.36855 20.421 9.91806 20.8074 11.6051C21.1938 13.2922 20.9961 15.041 20.2394 16.6304C19.4827 18.2197 18.201 19.5782 16.5564 20.534C14.9117 21.4898 12.9781 22 11 22C9.02191 22 7.08825 21.4898 5.44362 20.534C3.79899 19.5782 2.51727 18.2197 1.76058 16.6304C1.0039 15.041 0.806248 13.2922 1.19263 11.6051C1.57901 9.91806 2.53207 8.36855 3.93125 7.15259L10.9937 1Z" stroke="#222222" stroke-opacity="0.5" stroke-width="2" stroke-linecap="round" stroke-linejoin="round"/>
<path d="M10.9937 1L18.0687 7.15259C19.4679 8.36855 20.421 9.91806 20.8074 11.6051C21.1938 13.2922 20.9961 15.041 20.2394 16.6304C19.4827 18.2197 18.201 19.5782 16.5564 20.534C14.9117 21.4898 12.9781 22 11 22C9.02191 22 7.08825 21.4898 5.44362 20.534C3.79899 19.5782 2.51727 18.2197 1.76058 16.6304C1.0039 15.041 0.806248 13.2922 1.19263 11.6051C1.57901 9.91806 2.53207 8.36855 3.93125 7.15259L10.9937 1Z" stroke="#222222" stroke-opacity="0.1" stroke-width="2" stroke-linecap="round" stroke-linejoin="round"/>
<path d="M10.9937 1L18.0687 7.15259C19.4679 8.36855 20.421 9.91806 20.8074 11.6051C21.1938 13.2922 20.9961 15.041 20.2394 16.6304C19.4827 18.2197 18.201 19.5782 16.5564 20.534C14.9117 21.4898 12.9781 22 11 22C9.02191 22 7.08825 21.4898 5.44362 20.534C3.79899 19.5782 2.51727 18.2197 1.76058 16.6304C1.0039 15.041 0.806248 13.2922 1.19263 11.6051C1.57901 9.91806 2.53207 8.36855 3.93125 7.15259L10.9937 1Z" stroke="#222222" stroke-opacity="0.1" stroke-width="2" stroke-linecap="round" stroke-linejoin="round"/>
<path d="M10.9937 1L18.0687 7.15259C19.4679 8.36855 20.421 9.91806 20.8074 11.6051C21.1938 13.2922 20.9961 15.041 20.2394 16.6304C19.4827 18.2197 18.201 19.5782 16.5564 20.534C14.9117 21.4898 12.9781 22 11 22C9.02191 22 7.08825 21.4898 5.44362 20.534C3.79899 19.5782 2.51727 18.2197 1.76058 16.6304C1.0039 15.041 0.806248 13.2922 1.19263 11.6051C1.57901 9.91806 2.53207 8.36855 3.93125 7.15259L10.9937 1Z" stroke="#222222" stroke-opacity="0.1" stroke-width="2" stroke-linecap="round" stroke-linejoin="round"/>
</svg>
