<svg width="19" height="20" viewBox="0 0 19 20" fill="none" xmlns="http://www.w3.org/2000/svg">
<path fill-rule="evenodd" clip-rule="evenodd" d="M17.7367 5.66933C16.3105 2.24469 12.9689 0.0100374 9.25912 0.000128852C5.26093 -0.0209255 1.70583 2.54006 0.459509 6.3391C-0.78681 10.1381 0.560364 14.3074 3.79405 16.6588C7.02773 19.0103 11.4092 19.0068 14.6391 16.6501L17.5191 19.5301C17.8119 19.8226 18.2863 19.8226 18.5791 19.5301C18.8716 19.2373 18.8716 18.7629 18.5791 18.4701L15.7891 15.6801C18.3952 13.04 19.1629 9.09396 17.7367 5.66933ZM16.3996 12.1691C15.2021 15.0547 12.3834 16.9342 9.25912 16.9301V16.8901C5.01883 16.8847 1.57658 13.4603 1.54912 9.22013C1.54508 6.09586 3.42451 3.27717 6.31018 2.0797C9.19586 0.882226 12.5188 1.54208 14.728 3.75127C16.9372 5.96046 17.597 9.2834 16.3996 12.1691Z" fill="#2B2B2B"/>
</svg>
