<svg width="29" height="27" viewBox="0 0 29 27" fill="none" xmlns="http://www.w3.org/2000/svg">
<g clip-path="url(#clip0_28_2199)">
<path d="M17.0617 15.885C16.7298 16.2166 16.3296 16.4826 15.8849 16.667C15.4403 16.8515 14.9603 16.9507 14.4735 16.9587C13.9868 16.9667 13.5033 16.8833 13.0519 16.7136C12.6006 16.5438 12.1905 16.2912 11.8463 15.9707C11.5021 15.6502 11.2307 15.2685 11.0484 14.8482C10.8661 14.428 10.7766 13.9778 10.7851 13.5247C10.7937 13.0715 10.9003 12.6246 11.0984 12.2106C11.2965 11.7966 11.5822 11.424 11.9383 11.115M21.6775 20.1825C19.612 21.6484 17.0968 22.4605 14.5 22.5C6.04167 22.5 1.20833 13.5 1.20833 13.5C2.71137 10.8922 4.79604 8.61371 7.3225 6.81753L21.6775 20.1825ZM11.9625 4.77003C12.7942 4.58877 13.6458 4.49816 14.5 4.50003C22.9583 4.50003 27.7917 13.5 27.7917 13.5C27.0582 14.7776 26.1834 15.9804 25.1817 17.0888L11.9625 4.77003Z" stroke="#222222" stroke-opacity="0.5" stroke-width="2" stroke-linecap="round" stroke-linejoin="round"/>
<path d="M1.20833 1.125L27.7917 25.875" stroke="#222222" stroke-opacity="0.5" stroke-width="2" stroke-linecap="round" stroke-linejoin="round"/>
</g>
<defs>
<clipPath id="clip0_28_2199">
<rect width="29" height="27" fill="white"/>
</clipPath>
</defs>
</svg>
