<svg width="26" height="20" viewBox="0 0 26 20" fill="none" xmlns="http://www.w3.org/2000/svg">
<path d="M25.9999 0.967738C25.9999 0.433271 25.3978 0 24.6551 0L1.34482 0C0.602097 0 0 0.433271 0 0.967738C0 1.5022 0.602097 1.93548 1.34482 1.93548L24.6551 1.93548C25.0132 1.93898 25.3581 1.83815 25.6114 1.6559C25.8646 1.47365 26.0048 1.22546 25.9999 0.967738Z" fill="#2B2B2B"/>
<path d="M25.9999 9.99995C25.9999 9.46549 25.3978 9.03222 24.6551 9.03222L1.34482 9.03222C0.602097 9.03222 0 9.46549 0 9.99995C0 10.5344 0.602097 10.9677 1.34482 10.9677L24.6551 10.9677C25.0132 10.9712 25.3581 10.8704 25.6114 10.6881C25.8646 10.5059 26.0048 10.2577 25.9999 9.99995Z" fill="#2B2B2B"/>
<path d="M25.9999 19.0322C25.9999 18.4977 25.3978 18.0644 24.6551 18.0644L1.34482 18.0644C0.602097 18.0644 0 18.4977 0 19.0322C0 19.5666 0.602097 19.9999 1.34482 19.9999L24.6551 19.9999C25.0132 20.0034 25.3581 19.9026 25.6114 19.7203C25.8646 19.5381 26.0048 19.2899 25.9999 19.0322Z" fill="#2B2B2B"/>
</svg>
