<svg width="28" height="27" viewBox="0 0 28 27" fill="none" xmlns="http://www.w3.org/2000/svg">
<path d="M24.5 14.3887C24.3165 16.3037 23.5712 18.1287 22.3513 19.6501C21.1314 21.1716 19.4874 22.3265 17.6117 22.9799C15.7359 23.6332 13.706 23.7579 11.7594 23.3394C9.81286 22.9208 8.03017 21.9764 6.61994 20.6165C5.20971 19.2566 4.23027 17.5376 3.79623 15.6606C3.3622 13.7835 3.49151 11.8261 4.16904 10.0173C4.84658 8.20857 6.04431 6.62329 7.62209 5.44697C9.19987 4.27066 11.0924 3.55197 13.0783 3.375C11.9157 4.8918 11.3562 6.76063 11.5016 8.64159C11.6471 10.5226 12.4878 12.2907 13.871 13.6244C15.2541 14.9582 17.0877 15.7689 19.0384 15.9092C20.989 16.0494 22.927 15.5099 24.5 14.3887V14.3887Z" stroke="#222222" stroke-opacity="0.5" stroke-width="2" stroke-linecap="round" stroke-linejoin="round"/>
</svg>
