<svg width="13" height="24" viewBox="0 0 13 24" fill="none" xmlns="http://www.w3.org/2000/svg">
<path d="M9.55556 14.759L9.55556 3.49981C9.55556 2.83682 9.23363 2.20098 8.6606 1.73218C8.08758 1.26337 7.31038 1 6.5 1C5.68962 1 4.91242 1.26337 4.3394 1.73218C3.76637 2.20098 3.44444 2.83682 3.44444 3.49981L3.44444 14.759C2.46334 15.2953 1.71906 16.0755 1.32153 16.9844C0.924004 17.8933 0.894302 18.8827 1.23681 19.8065C1.57933 20.7303 2.27589 21.5394 3.22363 22.1145C4.17138 22.6895 5.32005 23 6.5 23C7.67995 23 8.82862 22.6895 9.77637 22.1145C10.7241 21.5394 11.4207 20.7303 11.7632 19.8065C12.1057 18.8827 12.076 17.8933 11.6785 16.9844C11.2809 16.0755 10.5367 15.2953 9.55556 14.759Z" stroke="#222222" stroke-opacity="0.5" stroke-width="2" stroke-linecap="round" stroke-linejoin="round"/>
</svg>
