<svg width="14" height="15" viewBox="0 0 14 15" fill="none" xmlns="http://www.w3.org/2000/svg">
<path fill-rule="evenodd" clip-rule="evenodd" d="M4.5 0.401924L11.75 4.59192C12.6752 5.12862 13.2447 6.11732 13.2447 7.18692C13.2447 8.25653 12.6752 9.24523 11.75 9.78192L4.5 13.9719C3.5715 14.508 2.4275 14.5078 1.49917 13.9714C0.570839 13.4351 -0.000685795 12.4441 6.17601e-07 11.3719V3.00192C-0.000685795 1.92978 0.570839 0.938773 1.49917 0.402405C2.4275 -0.133963 3.5715 -0.134146 4.5 0.401924ZM3.6 12.4119L10.85 8.23193C11.2231 8.01896 11.4524 7.62147 11.45 7.19192C11.4539 6.75936 11.2246 6.3582 10.85 6.14192L3.6 1.96192C3.41867 1.85293 3.21156 1.79425 3 1.79192C2.33174 1.79192 1.79 2.33366 1.79 3.00192V11.3719C1.79 11.6928 1.91749 12.0006 2.1444 12.2275C2.37132 12.4544 2.67909 12.5819 3 12.5819C3.21156 12.5796 3.41867 12.5209 3.6 12.4119Z" fill="#2B2B2B"/>
</svg>
