<svg width="34" height="24" viewBox="0 0 34 24" fill="none" xmlns="http://www.w3.org/2000/svg">
<path d="M15.5915 13.5563C15.5915 13.5563 23.8983 13.9199 27.5825 13.0534C31.2668 12.1869 31.2615 7.69017 27.5825 6.58169C23.9036 5.4732 22.6462 9.43535 22.6462 9.43535" stroke="#222222" stroke-opacity="0.5" stroke-width="2" stroke-linecap="round"/>
<path d="M1.32864 5.81374C1.32864 5.81374 9.18995 8.01766 13.0263 8.00721C16.8627 7.99676 20.1329 5.31421 16.9737 3.42738C13.8145 1.54054 9.51261 3.42734 9.51261 3.42734" stroke="#222222" stroke-opacity="0.5" stroke-width="2" stroke-linecap="round"/>
<path d="M1.3028 18.4132C1.3028 18.4132 13.789 17.4996 19.2935 18.4132C24.798 19.3269 23.0452 21.9475 20.4365 22.0679C17.8278 22.1882 15.42 20.7995 15.42 20.7995" stroke="#222222" stroke-opacity="0.5" stroke-width="2" stroke-linecap="round"/>
<path d="M27.8787 18.4065H32.843" stroke="#222222" stroke-opacity="0.5" stroke-width="2" stroke-linecap="round"/>
<path d="M5.23016 13.6162H10.1945" stroke="#222222" stroke-opacity="0.5" stroke-width="2" stroke-linecap="round"/>
</svg>
